<?xml version="1.0" encoding="UTF-8" standalone="no"?>
<!-- Created with Inkscape (http://www.inkscape.org/) -->

<svg
   xmlns:dc="http://purl.org/dc/elements/1.1/"
   xmlns:cc="http://creativecommons.org/ns#"
   xmlns:rdf="http://www.w3.org/1999/02/22-rdf-syntax-ns#"
   xmlns:svg="http://www.w3.org/2000/svg"
   xmlns="http://www.w3.org/2000/svg"
   version="1.1"
   width="32"
   height="32"
   viewBox="0 0 32 32"
   id="svg2">
  <metadata
     id="metadata20">
    <rdf:RDF>
      <cc:Work
         rdf:about="">
        <dc:format>image/svg+xml</dc:format>
        <dc:type
           rdf:resource="http://purl.org/dc/dcmitype/StillImage" />
        <dc:title></dc:title>
      </cc:Work>
    </rdf:RDF>
  </metadata>
  <defs
     id="defs18" />
  <path
     d="M 7.429688,0 24.570312,0 C 28,0 28,0 28,3.554688 l 0,24.890624 C 28,32 28,32 24.570312,32 L 7.429688,32 C 4,32 4,32 4,28.445312 L 4,3.554688 C 4,0 4,0 7.429688,0 z"
     id="path4"
     style="fill:#ffffff;fill-rule:evenodd" />
  <g
     transform="translate(0,-12)"
     id="g3017">
    <path
       d="m 7,25 0,3 3,0"
       id="path8"
       style="fill:#aaaaaa;stroke:#aaaaaa;stroke-width:2;stroke-linecap:round" />
    <path
       d="m 25,25 0,3 -3,0"
       id="path10"
       style="fill:#aaaaaa;stroke:#aaaaaa;stroke-width:2;stroke-linecap:round" />
    <path
       d="m 22,28 3,0 0,3"
       id="path12"
       style="fill:#aaaaaa;stroke:#aaaaaa;stroke-width:2;stroke-linecap:round" />
    <path
       d="m 7,31 0,-3 3,0"
       id="path14"
       style="fill:#aaaaaa;stroke:#aaaaaa;stroke-width:2;stroke-linecap:round" />
  </g>
</svg>
